<svg width="94" height="25" viewBox="0 0 94 25" fill="none" xmlns="http://www.w3.org/2000/svg">
<path d="M0.765381 3.01721C0.765381 1.36036 2.10853 0.0172119 3.76538 0.0172119H9.47067C12.5096 0.0172119 15.0315 1.08295 17.0364 3.21443C19.0623 5.3459 20.0753 7.97332 20.0753 11.0967C20.0753 14.1989 19.0623 16.8263 17.0364 18.9789C15.0315 21.1104 12.5096 22.1761 9.47067 22.1761H3.76538C2.10853 22.1761 0.765381 20.833 0.765381 19.1761V3.01721Z" fill="white"/>
<path d="M24.6927 12.2575V13.777C25.1872 12.6555 26.1157 12.0947 27.4784 12.0947V14.2111C26.7428 14.1629 26.0916 14.3438 25.5248 14.7538C24.9701 15.1518 24.6927 15.815 24.6927 16.7436V21.302H22.7391V12.2575H24.6927Z" fill="white"/>
<path d="M37.2349 17.6118H30.0355C30.1802 18.2872 30.5058 18.8117 31.0123 19.1856C31.5308 19.5594 32.17 19.7463 32.9297 19.7463C33.9547 19.7463 34.7326 19.3725 35.2632 18.6248L36.8731 19.5654C35.9927 20.8799 34.6723 21.5371 32.9116 21.5371C31.4524 21.5371 30.2646 21.0909 29.3481 20.1986C28.4436 19.2941 27.9914 18.1545 27.9914 16.7798C27.9914 15.4412 28.4376 14.3136 29.33 13.3971C30.2103 12.4806 31.356 12.0224 32.7669 12.0224C34.0814 12.0224 35.1667 12.4867 36.0229 13.4152C36.8791 14.3438 37.3072 15.4713 37.3072 16.7978C37.3072 17.039 37.2831 17.3104 37.2349 17.6118ZM30.0174 16.02H35.3355C35.2029 15.3085 34.9014 14.7598 34.4311 14.3739C33.9728 13.988 33.4121 13.7951 32.7488 13.7951C32.0252 13.7951 31.4223 13.9941 30.9399 14.392C30.4575 14.79 30.15 15.3326 30.0174 16.02Z" fill="white"/>
<path d="M46.1364 13.5418V12.2575H48.09V21.302H46.1364V19.9996C45.4008 21.0246 44.3456 21.5371 42.9709 21.5371C41.7288 21.5371 40.6676 21.0789 39.7872 20.1624C38.9069 19.2459 38.4667 18.1183 38.4667 16.7798C38.4667 15.4412 38.9069 14.3136 39.7872 13.3971C40.6676 12.4806 41.7288 12.0224 42.9709 12.0224C44.3456 12.0224 45.4008 12.5289 46.1364 13.5418ZM41.2343 18.86C41.777 19.4026 42.4584 19.674 43.2784 19.674C44.0984 19.674 44.7798 19.4026 45.3224 18.86C45.8651 18.3053 46.1364 17.6118 46.1364 16.7798C46.1364 15.9477 45.8651 15.2603 45.3224 14.7176C44.7798 14.1629 44.0984 13.8855 43.2784 13.8855C42.4584 13.8855 41.777 14.1629 41.2343 14.7176C40.6917 15.2603 40.4203 15.9477 40.4203 16.7798C40.4203 17.5998 40.6917 18.2932 41.2343 18.86Z" fill="white"/>
<path d="M60.2437 12.0224C61.2687 12.0224 62.0948 12.354 62.7218 13.0173C63.3489 13.6805 63.6625 14.5729 63.6625 15.6944V21.302H61.7089V15.821C61.7089 15.206 61.5521 14.7236 61.2386 14.3739C60.925 14.0242 60.4969 13.8493 59.9542 13.8493C59.3392 13.8493 58.8568 14.0544 58.5071 14.4644C58.1574 14.8623 57.9826 15.4532 57.9826 16.2371V21.302H56.0289V15.821C56.0289 15.194 55.8782 14.7116 55.5767 14.3739C55.2873 14.0242 54.8713 13.8493 54.3286 13.8493C53.7256 13.8493 53.2372 14.0544 52.8634 14.4644C52.5016 14.8744 52.3207 15.4653 52.3207 16.2371V21.302H50.3671V12.2575H52.3207V13.3429C52.8996 12.4625 53.7618 12.0224 54.9074 12.0224C56.0651 12.0224 56.9213 12.4987 57.4761 13.4514C58.067 12.4987 58.9895 12.0224 60.2437 12.0224Z" fill="white"/>
<path d="M70.0223 21.5371C68.6596 21.5371 67.52 21.0789 66.6035 20.1624C65.699 19.2338 65.2468 18.1063 65.2468 16.7798C65.2468 15.4291 65.699 14.3016 66.6035 13.3971C67.52 12.4806 68.6596 12.0224 70.0223 12.0224C70.9026 12.0224 71.7045 12.2334 72.4281 12.6555C73.1517 13.0776 73.6943 13.6443 74.0561 14.3558L72.3738 15.3326C72.1688 14.8985 71.8553 14.5608 71.4332 14.3197C71.0232 14.0664 70.5468 13.9398 70.0042 13.9398C69.2083 13.9398 68.539 14.2111 67.9963 14.7538C67.4657 15.3085 67.2004 15.9838 67.2004 16.7798C67.2004 17.5757 67.4657 18.251 67.9963 18.8057C68.539 19.3484 69.2083 19.6197 70.0042 19.6197C70.5348 19.6197 71.0111 19.4991 71.4332 19.2579C71.8673 19.0047 72.1929 18.661 72.41 18.2269L74.0923 19.1856C73.7064 19.9091 73.1456 20.4819 72.41 20.904C71.6865 21.3261 70.8905 21.5371 70.0223 21.5371Z" fill="white"/>
<path d="M77.4579 21.302H75.5043V8.09708H77.4579V21.302Z" fill="white"/>
<path d="M81.5713 10.5391C81.3302 10.7803 81.0407 10.9009 80.7031 10.9009C80.3654 10.9009 80.07 10.7803 79.8167 10.5391C79.5755 10.2858 79.4549 9.99038 79.4549 9.65272C79.4549 9.31506 79.5755 9.02564 79.8167 8.78445C80.0579 8.53121 80.3533 8.40459 80.7031 8.40459C81.0528 8.40459 81.3482 8.53121 81.5894 8.78445C81.8306 9.02564 81.9512 9.31506 81.9512 9.65272C81.9512 9.99038 81.8246 10.2858 81.5713 10.5391ZM81.6799 21.302H79.7263V12.2575H81.6799V21.302Z" fill="white"/>
<path d="M89.0674 12.0224C90.2974 12.0224 91.3586 12.4867 92.251 13.4152C93.1313 14.3317 93.5715 15.4532 93.5715 16.7798C93.5715 18.1183 93.1313 19.2459 92.251 20.1624C91.3707 21.0789 90.3095 21.5371 89.0674 21.5371C87.7047 21.5371 86.6495 21.0306 85.9018 20.0177V24.9198H83.9482V12.2575H85.9018V13.5599C86.6374 12.5349 87.6926 12.0224 89.0674 12.0224ZM86.7158 18.86C87.2585 19.4026 87.9398 19.674 88.7598 19.674C89.5799 19.674 90.2612 19.4026 90.8039 18.86C91.3466 18.3053 91.6179 17.6118 91.6179 16.7798C91.6179 15.9477 91.3466 15.2603 90.8039 14.7176C90.2612 14.1629 89.5799 13.8855 88.7598 13.8855C87.9398 13.8855 87.2585 14.1629 86.7158 14.7176C86.1731 15.2603 85.9018 15.9477 85.9018 16.7798C85.9018 17.5998 86.1731 18.2932 86.7158 18.86Z" fill="white"/>
</svg>
